<svg width="52" height="40" viewBox="0 0 52 40" fill="none" xmlns="http://www.w3.org/2000/svg">
<path d="M38.2812 36.3925C37.9992 36.3925 37.7163 36.3885 37.4343 36.3935C37.2332 36.3975 37.0321 36.4154 36.8302 36.4253C36.3569 36.4472 35.8827 36.4939 35.4103 36.482C34.985 36.4711 34.7804 36.2384 34.6647 35.774C34.3791 34.6215 34.2581 33.4392 34.1247 32.2568C34.0704 31.7755 33.9743 31.2953 33.8507 30.8309C33.5286 29.6207 33.1852 28.4165 32.8409 27.2133C32.5758 26.2855 32.1256 25.5099 31.4699 24.8357C30.6968 24.0402 29.8801 23.3272 28.9584 22.7793C28.413 22.4551 27.8419 22.1061 27.2467 21.9868C26.6177 21.8605 25.946 21.9739 25.2947 22.0206C24.9264 22.0474 24.5563 22.125 24.1987 22.2284C23.9166 22.311 23.6391 22.4432 23.3828 22.6003C23.0376 22.8131 22.7129 23.0677 22.3828 23.3103C22.2423 23.4137 22.0901 23.5122 21.9772 23.6484C21.6204 24.079 21.2823 24.5274 20.9336 24.966C20.1569 25.9395 19.7912 27.1477 19.3597 28.325C18.5786 30.455 18.3695 32.7023 18.213 34.9606C18.1614 35.7054 18.1605 36.4561 18.1614 37.2049C18.1614 37.4804 18.2147 37.7608 18.2726 38.0312C18.3802 38.5344 18.1765 38.8914 17.7139 38.956C17.4736 38.9898 17.2317 39.0107 16.9906 39.0336C16.3455 39.0952 15.7148 39.2176 15.0849 39.3985C14.624 39.5308 14.1338 39.5726 13.6516 39.4065C13.5333 39.3657 13.3847 39.4323 13.2504 39.4473C12.3287 39.5527 11.4061 39.6601 10.4835 39.7605C9.88476 39.8251 9.28957 39.851 8.74154 39.486C8.67837 39.4443 8.58495 39.4473 8.50577 39.4473C7.8919 39.4463 7.27714 39.4413 6.66416 39.4572C6.53871 39.4602 6.41505 39.5457 6.28961 39.5924C6.11612 39.6571 5.94708 39.7525 5.76915 39.7804C5.25759 39.8589 4.74336 39.9136 4.23002 39.9713C4.06988 39.9892 3.90707 40.0071 3.74693 39.9972C2.77986 39.9415 1.8119 39.8818 0.845719 39.8162C0.394656 39.7854 0.1153 39.4652 0.106403 38.957C0.101065 38.6517 0.153556 38.3445 0.145549 38.0392C0.125976 37.3272 0.0930584 36.6162 0.0521336 35.9062C-0.0697511 33.8001 0.0352298 31.702 0.230957 29.6088C0.33149 28.5319 0.417788 27.448 0.609956 26.3899C0.818139 25.2434 1.13486 24.1217 1.41956 22.9931C1.63397 22.1419 1.8635 21.2957 2.10104 20.4524C2.37061 19.4939 2.75139 18.5919 3.17576 17.704C3.7923 16.4142 4.39728 15.1215 5.10724 13.8905C5.37503 13.4261 5.53072 12.8802 5.73001 12.3671C6.22911 11.0883 6.92928 9.96164 7.79226 8.95831C7.97642 8.74352 8.14724 8.51282 8.33763 8.30599C8.66147 7.95497 8.99598 7.61688 9.32605 7.27381C9.57427 7.01626 9.81359 6.74678 10.0734 6.50415C10.4248 6.177 10.7878 5.86377 11.1543 5.5575C11.4639 5.29896 11.7798 5.04837 12.1036 4.8127C12.399 4.59791 12.705 4.39804 13.0146 4.20911C13.318 4.02315 13.6338 3.86306 13.9408 3.68307C14.7335 3.2177 15.5235 2.74636 16.3171 2.28198C16.4025 2.23226 16.4959 2.19447 16.5893 2.16961C17.5777 1.9061 18.567 1.64955 19.5546 1.38206C19.93 1.28063 20.3161 1.19611 20.6711 1.03303C21.3304 0.729739 22.0083 0.589531 22.7165 0.527879C23.2093 0.48512 23.7084 0.361816 24.1782 0.186803C24.7111 -0.0120745 25.2244 -0.0498612 25.7725 0.0625047C26.1977 0.150011 26.6346 0.171887 27.0678 0.196747C28.736 0.295192 30.4157 0.264366 32.0642 0.602458C32.6763 0.727751 33.2653 1.01314 33.8516 1.26472C34.5678 1.57199 35.2715 1.91306 35.9761 2.25414C36.509 2.51168 37.0357 2.78812 37.5615 3.06456C37.8978 3.24057 38.2172 3.46331 38.5633 3.60949C40.3106 4.34931 41.7723 5.6092 43.2687 6.80645C43.8328 7.2579 44.3915 7.72327 44.9191 8.22743C46.2927 9.53903 47.3274 11.1052 47.9537 13.0333C48.6521 15.1852 49.1192 17.4076 49.7153 19.5903C50.4146 22.1479 50.7286 24.788 51.024 27.4301C51.2464 29.4179 51.4581 31.4066 51.6761 33.3954C51.7313 33.8976 51.564 34.2208 51.1209 34.3053C50.4386 34.4345 49.7491 34.5907 49.0623 34.5976C48.242 34.6056 47.4875 34.8701 46.7269 35.1266C45.8025 35.4389 44.8506 35.4687 43.9013 35.5453C43.7429 35.5582 43.5721 35.5721 43.4306 35.6437C42.6415 36.0464 41.8097 36.1688 40.9529 36.1936C40.5695 36.2046 40.1887 36.305 39.8052 36.3468C39.5499 36.3746 39.2919 36.3766 39.0348 36.3826C38.7848 36.3885 38.5348 36.3835 38.2848 36.3835V36.3935L38.2812 36.3925ZM46.8861 33.5794C46.8425 32.9559 46.7963 32.3185 46.7527 31.6801C46.6255 29.7977 46.444 27.9223 46.0899 26.0747C45.6477 23.7658 44.9022 21.5612 44.1966 19.3437C43.7162 17.8362 43.1299 16.3834 42.3782 15.0151C41.3951 13.2252 40.1326 11.7675 38.4645 10.7631C37.8462 10.3912 37.2608 9.95369 36.6496 9.56488C36.2644 9.31927 35.8711 9.0826 35.4637 8.8887C32.2742 7.37325 28.9388 6.76568 25.4833 6.87208C24.1844 6.91185 22.8828 6.89793 21.583 6.87705C20.866 6.86611 20.1658 6.94069 19.4736 7.15051C18.9434 7.3116 18.4114 7.46076 17.8767 7.60196C17.2566 7.76603 16.6854 8.04745 16.1471 8.42631C15.4505 8.91754 14.7361 9.37893 14.0449 9.87811C11.9132 11.4194 10.3056 13.4649 9.31804 16.092C9.01822 16.8905 8.77001 17.7139 8.45239 18.5034C7.46753 20.9536 6.85722 23.536 6.27715 26.1264C5.9115 27.7602 5.80652 29.4407 5.73623 31.1183C5.64549 33.29 5.58232 35.4637 5.50937 37.6375C5.50314 37.8324 5.50937 38.0273 5.50937 38.1814H8.82872C8.8483 38.0969 8.85986 38.07 8.85808 38.0452C8.85008 37.9278 8.84741 37.8095 8.82694 37.6951C8.60898 36.4909 8.80381 35.3504 9.20861 34.2277C9.40968 33.6689 9.57961 33.0901 9.70861 32.5054C10.0814 30.815 10.4301 29.1185 10.7815 27.4231C11.0129 26.3074 11.2006 25.1788 11.463 24.073C11.8981 22.2394 12.4257 20.4355 13.2068 18.7441C13.6917 17.695 14.1908 16.6479 14.7682 15.6615C15.4621 14.4772 16.4043 13.5176 17.4932 12.8225C18.7939 11.9922 20.1435 11.2504 21.6222 10.8457C22.8722 10.5026 24.1221 10.1784 25.4148 10.1546C26.2298 10.1396 27.0456 10.1814 27.8605 10.1734C28.9361 10.1635 29.9717 10.3514 31.0037 10.7154C32.2626 11.1589 33.4174 11.839 34.5855 12.4924C35.0962 12.7778 35.5784 13.1298 36.0624 13.4728C37.4174 14.4324 38.4138 15.7987 39.3933 17.1819C40.2421 18.3791 40.9369 19.6738 41.3853 21.1237C41.71 22.1727 42.0125 23.2298 42.3604 24.2689C43.2527 26.9349 43.6086 29.7142 43.8079 32.5293C43.8443 33.0484 43.8523 33.5704 43.8755 34.1213C44.9039 34.0865 45.911 34.007 46.8879 33.5784L46.8861 33.5794ZM47.4279 33.5625C47.726 33.5068 47.992 33.4441 48.2607 33.4093C48.9644 33.3178 49.6699 33.2373 50.3754 33.1568C50.532 33.1389 50.5694 33.0683 50.548 32.8903C50.3434 31.1819 50.129 29.4745 49.9519 27.7622C49.4421 22.837 48.2322 18.1107 46.7642 13.4519C46.2411 11.7923 45.3417 10.433 44.1593 9.31827C42.7073 7.95 41.1566 6.72391 39.5446 5.59827C39.3666 5.47397 39.1789 5.36657 38.9876 5.27012C37.098 4.31352 35.2119 3.34498 33.3115 2.41722C32.7608 2.14873 32.1754 1.88025 31.5874 1.81462C30.1345 1.65452 28.6719 1.58591 27.212 1.53519C26.6372 1.51531 26.067 1.53022 25.5038 1.38106C25.2209 1.30648 24.946 1.32538 24.6728 1.44769C24.0207 1.73805 23.3375 1.85638 22.6408 1.92002C22.3134 1.94985 21.9638 1.96875 21.6693 2.10995C20.4256 2.70559 19.0653 2.811 17.801 3.31217C17.6729 3.36288 17.5288 3.36388 17.3998 3.41161C17.0955 3.52497 16.7788 3.61744 16.4968 3.78152C15.7103 4.23993 14.939 4.73315 14.1605 5.20847C14.0119 5.29896 13.8545 5.37055 13.7014 5.45309C12.7824 5.94929 11.9479 6.61553 11.1881 7.34938C10.3198 8.18865 9.43014 9.01697 8.67748 10.0054C7.99955 10.8964 7.37322 11.8152 6.94707 12.8901C6.7122 13.4838 6.52626 14.1132 6.21754 14.6562C5.5236 15.8783 4.92307 17.1521 4.32522 18.4318C3.92398 19.292 3.56099 20.1631 3.3101 21.0908C3.02808 22.1359 2.75406 23.184 2.48449 24.2331C2.29054 24.9869 2.03788 25.7327 1.93467 26.5033C1.7256 28.0545 1.54589 29.6167 1.45425 31.1809C1.36618 32.6725 1.38931 34.174 1.39198 35.6716C1.39376 36.5088 1.4587 37.3451 1.48094 38.1824C1.48539 38.3564 1.54589 38.3952 1.68023 38.4022C2.3973 38.4389 3.11527 38.4847 3.83234 38.5195C3.94355 38.5255 4.06454 38.5165 4.16597 38.4718C4.23002 38.4429 4.30653 38.3355 4.30742 38.261C4.31276 37.9368 4.27539 37.6106 4.28518 37.2874C4.34924 35.2857 4.39283 33.282 4.50137 31.2823C4.58144 29.8246 4.70511 28.3658 4.89283 26.9209C5.14282 25.0058 5.65438 23.1502 6.20954 21.3245C6.77003 19.4809 7.46219 17.688 8.08941 15.8703C8.97641 13.2998 10.4533 11.2086 12.3678 9.52113C13.3091 8.69181 14.3758 8.04247 15.3802 7.30265C16.0831 6.78557 16.8366 6.41367 17.6578 6.20087C18.1614 6.0706 18.6596 5.91448 19.1578 5.76035C19.8704 5.54059 20.5928 5.42226 21.3348 5.43121C22.6835 5.44811 24.0323 5.44811 25.381 5.44911C25.7849 5.44911 26.1888 5.41629 26.5928 5.42723C28.1719 5.46999 29.7297 5.73848 31.2831 6.0358C32.743 6.31522 34.0962 6.97848 35.4654 7.57014C35.9823 7.79388 36.4823 8.08225 36.9619 8.39648C37.8391 8.97223 38.6967 9.58576 39.5588 10.1904C40.2883 10.7025 40.9342 11.3279 41.5161 12.0359C42.4476 13.1685 43.17 14.4583 43.791 15.8236C44.6175 17.6413 45.1673 19.5774 45.7313 21.5065C46.2109 23.1443 46.7028 24.778 46.9475 26.4864C47.2438 28.5587 47.3817 30.6449 47.3932 32.7431C47.395 33.0016 47.4146 33.2612 47.4279 33.5615V33.5625ZM10.0431 38.3972C10.1846 38.3733 10.3492 38.3425 10.5146 38.3196C11.1463 38.2321 11.778 38.1347 12.4114 38.068C12.7655 38.0312 12.7717 38.0551 12.802 37.6444C12.8723 36.6829 12.9319 35.7203 13.0084 34.7587C13.1623 32.8226 13.4052 30.9035 13.9354 29.044C14.1881 28.159 14.4897 27.2879 14.6899 26.388C14.995 25.0107 15.4781 23.718 16.0235 22.4462C16.5751 21.1595 17.3687 20.0616 18.2548 19.0613C18.7788 18.4706 19.422 18.0092 20.0225 17.5041C20.1747 17.3758 20.3633 17.3002 20.5386 17.2097C20.9994 16.9721 21.4558 16.7195 21.9273 16.5127C22.2912 16.3526 22.6684 16.1955 23.0519 16.1378C24.2111 15.9648 25.389 15.915 26.5349 15.6744C27.4629 15.4795 28.3819 15.5004 29.2804 15.6495C30.3827 15.8325 31.3747 16.463 32.2573 17.1899C33.0749 17.8631 33.8311 18.6407 34.4841 19.5446C35.6087 21.1018 36.6282 22.7087 37.1576 24.6478C37.1861 24.7512 37.2261 24.8506 37.2679 24.9481C38.2127 27.1347 38.7572 29.4626 39.1976 31.8253C39.3818 32.8137 39.5472 33.8061 39.7163 34.7975C39.7447 34.9636 39.8044 35.0123 39.9618 34.9944C40.3221 34.9526 40.686 34.9457 41.0481 34.9178C41.4751 34.886 41.9013 34.8482 42.3275 34.8124C42.4947 34.7985 42.5739 34.7259 42.5712 34.5071C42.541 32.399 42.3586 30.3078 42.0063 28.2385C41.6228 25.9882 40.888 23.8513 40.2332 21.6905C39.8301 20.359 39.2127 19.1587 38.4307 18.0629C37.7012 17.0407 37.0099 15.9757 36.0695 15.1693C34.2546 13.611 32.2261 12.5222 30.0367 11.8072C29.5998 11.665 29.1345 11.5805 28.6799 11.5636C27.615 11.5248 26.5483 11.5368 25.4824 11.5427C25.1444 11.5447 24.8036 11.5735 24.4682 11.6253C22.4513 11.9365 20.5368 12.5819 18.7299 13.6628C17.4941 14.4016 16.4621 15.3701 15.6952 16.6539C14.6418 18.4179 13.8723 20.348 13.2442 22.3477C12.4719 24.8069 12.0751 27.3744 11.512 29.8932C11.1775 31.3897 10.9524 32.9271 10.3937 34.3401C9.87587 35.6517 9.71839 36.9603 10.0422 38.3962L10.0431 38.3972ZM17.0395 37.6812C17.0849 36.6411 17.1098 35.6407 17.1765 34.6434C17.3313 32.3145 17.4781 29.9856 18.2752 27.7791C18.6889 26.6336 19.011 25.4423 19.7432 24.4777C20.1969 23.8791 20.6507 23.2785 21.1302 22.7067C21.325 22.475 21.5848 22.308 21.825 22.127C22.1124 21.9102 22.4015 21.6934 22.704 21.5075C23.0261 21.3086 23.3508 21.057 23.7004 20.9825C24.76 20.7587 25.8152 20.4753 26.913 20.5549C27.3712 20.5877 27.8063 20.6623 28.2297 20.8611C29.7164 21.5582 31.0527 22.4929 32.2591 23.7091C33.1452 24.603 33.7457 25.6422 34.1069 26.8842C34.4432 28.0426 34.7982 29.1951 35.0971 30.3655C35.2644 31.0208 35.3471 31.704 35.4476 32.3781C35.5669 33.1786 35.6549 33.9841 35.7759 34.7846C35.8346 35.1724 35.856 35.1684 36.2056 35.1505C36.2457 35.1485 36.2857 35.1416 36.3266 35.1386C36.8088 35.1058 37.2901 35.0719 37.7723 35.0421C38.0499 35.0242 38.3275 35.0123 38.6131 34.9974C38.5063 34.4296 38.3978 33.9115 38.3133 33.3894C37.9645 31.2097 37.5312 29.0569 36.767 27.0035C36.5188 26.3372 36.2234 25.6899 36.0215 25.0077C35.743 24.0651 35.3774 23.1781 34.8756 22.3627C34.501 21.7541 34.1007 21.1664 33.719 20.5628C33.2101 19.7594 32.5393 19.1369 31.9023 18.4716C31.1781 17.7139 30.2253 17.4514 29.3961 16.9253C29.3828 16.9164 29.365 16.9124 29.3498 16.9114C28.6968 16.8886 28.0376 16.7901 27.3935 16.8607C26.3436 16.9761 25.3081 17.2605 24.2574 17.3619C23.3303 17.4514 22.4967 17.7288 21.6622 18.1912C21.0127 18.5512 20.4087 18.9479 19.8286 19.4252C18.8099 20.2635 18.0599 21.3653 17.4478 22.5605C16.8197 23.7866 16.3153 25.0933 16.0342 26.4904C15.9372 26.9727 15.7744 27.438 15.6498 27.9143C15.3491 29.0658 14.9861 30.2024 14.7699 31.3738C14.4212 33.2552 14.2317 35.1684 14.1445 37.0906C14.1267 37.4923 14.0876 37.892 14.0546 38.3385C14.3847 38.2629 14.6827 38.1963 14.9808 38.1257C15.5075 38.0004 16.0333 37.8692 16.5617 37.7488C16.7263 37.7111 16.8954 37.7011 17.043 37.6812H17.0395Z" fill="black"/>
</svg>
