<svg width="32" height="57" viewBox="0 0 32 57" fill="none" xmlns="http://www.w3.org/2000/svg">
<path d="M26.6787 35.4024C26.666 35.6396 26.6554 35.8218 26.6458 36.0039C26.5103 38.5107 26.2222 41.0016 25.9659 43.4978C25.716 45.9315 25.2913 48.3313 24.8634 50.7343C24.6548 51.9067 24.55 53.097 24.3593 54.2726C24.2937 54.674 24.121 55.0616 23.9738 55.446C23.816 55.8569 23.4655 56.0412 23.0567 56.1016C21.861 56.2795 20.6654 56.4595 19.4655 56.6025C19.0408 56.6533 18.6023 56.576 18.1713 56.593C17.2785 56.6279 16.3878 56.6851 15.4961 56.7359C14.8173 56.7751 14.1384 56.8133 13.4606 56.862C13.3092 56.8726 13.1588 56.9139 13.0126 56.9573C12.6218 57.0717 12.2967 56.9573 12.1071 56.6025C11.9811 56.3663 11.8551 56.1206 11.7894 55.8633C11.047 52.9488 10.2686 50.0427 9.59825 47.1113C9.08249 44.8544 8.71076 42.5647 8.26596 40.292C7.98319 38.8485 7.67925 37.4103 7.3986 35.9668C7.34776 35.7074 7.24821 35.6396 6.98345 35.6481C6.0716 35.6767 5.15764 35.6894 4.24579 35.6671C3.89737 35.6587 3.5447 35.5644 3.20792 35.4617C2.84678 35.3505 2.64239 35.0698 2.60532 34.6907C2.56614 34.2893 2.52166 33.8858 2.51848 33.4834C2.51001 32.0314 2.51424 30.5794 2.52589 29.1285C2.52695 28.9506 2.474 28.8585 2.32255 28.7653C0.845174 27.8481 0.0487656 26.5116 0.00428531 24.7822C-0.0433721 22.8928 0.305056 21.0607 1.12053 19.3482C1.93812 17.6304 3.19521 16.2706 4.81768 15.2952C5.24448 15.0389 5.37157 14.7964 5.41817 14.3452C5.59185 12.6295 6.28659 11.1066 7.2821 9.72033C7.78833 9.01394 8.5159 8.54795 9.21911 8.05761C10.9252 6.86724 12.8315 6.11849 14.7918 5.4767C15.9314 5.10391 17.054 4.68135 18.1851 4.28315C19.0175 3.99085 19.8552 3.71232 20.6823 3.40519C20.9566 3.30352 21.2214 3.1542 21.4586 2.98263C22.1735 2.46475 22.8756 1.92993 23.5746 1.39299C23.7409 1.2659 23.8785 1.10175 24.0289 0.954542C24.3244 0.667539 24.6029 0.357236 24.9249 0.104122C25.0498 0.00563047 25.3019 -0.0293183 25.4491 0.0268115C25.5825 0.0787052 25.735 0.294752 25.7361 0.439842C25.7425 1.57197 25.7499 2.70622 25.6863 3.83517C25.6313 4.81479 25.2849 5.70969 24.6357 6.46797C24.6125 6.49551 24.5997 6.53152 24.5828 6.56223C24.9778 6.69885 25.3697 6.81746 25.7488 6.96997C26.8926 7.42854 27.8203 8.13281 28.4759 9.21304C29.2331 10.4617 29.5 11.7781 29.1759 13.1919C28.9874 14.0127 28.514 14.6968 27.9252 15.2962C27.8712 15.3513 27.8097 15.3979 27.7547 15.4509C27.742 15.4625 27.7377 15.4848 27.725 15.5112C27.7674 15.5303 27.8076 15.5547 27.851 15.5684C29.7256 16.171 30.8111 17.4821 31.2421 19.3704C31.3936 20.0366 31.2983 20.6921 31.078 21.3286C30.6618 22.5296 29.9871 23.578 29.1124 24.4878C28.2842 25.3498 27.3586 26.1007 26.2942 26.6641C26.2519 26.6864 26.2137 26.7139 26.1851 26.77C26.3069 26.7234 26.4393 26.6938 26.5495 26.6271C27.044 26.3252 27.6138 26.1748 28.0501 25.7449C28.4695 25.3318 29.1632 25.6474 29.2564 26.2638C29.3094 26.6143 29.321 26.9723 29.3263 27.3281C29.3549 29.3075 29.3729 31.2879 29.4036 33.2673C29.41 33.6613 29.4693 34.0531 29.4777 34.4471C29.4915 35.1048 29.1749 35.4257 28.514 35.4288C28.0141 35.431 27.5153 35.4119 27.0154 35.4034C26.9117 35.4013 26.8089 35.4034 26.6808 35.4034L26.6787 35.4024ZM26.8915 16.2663C26.8619 16.3119 26.8216 16.3754 26.7782 16.4368C26.7284 16.5078 26.6829 16.5819 26.6247 16.6455C25.5084 17.875 24.228 18.8684 22.6151 19.3524C22.2847 19.452 21.9172 19.4594 21.5677 19.4541C21.3061 19.4499 21.107 19.2762 20.9937 19.0294C20.9111 18.8494 20.8973 18.7043 21.1451 18.6323C21.3177 18.5814 21.4734 18.4755 21.6418 18.4046C23.2092 17.7437 24.659 16.8859 25.968 15.7961C26.0602 15.7199 26.1248 15.6108 26.2063 15.5218C26.3186 15.4 26.415 15.2401 26.5558 15.1692C27.5524 14.665 28.1338 13.8231 28.388 12.7799C28.6326 11.7738 28.4049 10.8016 27.9453 9.87601C27.1362 8.24824 25.7308 7.55774 24.0194 7.34487C23.9262 7.33322 23.7906 7.40947 23.7228 7.48678C23.2272 8.04702 22.685 8.55749 21.9754 8.81907C21.3389 9.05418 20.6781 9.18021 20.013 8.87944C19.7938 8.77989 19.8192 8.6581 19.9791 8.54796C20.1274 8.44629 20.2936 8.34673 20.4652 8.30861C21.4406 8.09574 22.2275 7.51961 23.0429 6.9975C23.0927 6.96573 23.1234 6.90007 23.1584 6.84711C23.2473 6.71262 23.3109 6.55058 23.4253 6.44468C24.3371 5.59955 24.7014 4.52355 24.7522 3.31941C24.7745 2.80683 24.7554 2.29107 24.7554 1.71177C24.5108 1.92146 24.3435 2.07714 24.1645 2.21799C23.5004 2.73799 22.8459 3.27175 22.1607 3.76315C21.8081 4.01627 21.4162 4.23655 21.0127 4.39541C20.2184 4.70677 19.4008 4.95459 18.5981 5.24583C17.5157 5.63874 16.4524 6.0846 15.3584 6.4415C13.4225 7.07375 11.5511 7.83733 9.88314 9.02559C9.31548 9.43015 8.74148 9.86118 8.29032 10.3844C7.51297 11.2856 7.09359 12.3987 6.80235 13.5393C6.64349 14.162 6.63396 14.8228 6.55347 15.4985C7.07135 15.4985 7.51192 15.4837 7.95036 15.5017C8.87068 15.5388 9.79841 15.525 10.7071 15.6531C12.3232 15.8819 13.8789 15.578 15.4442 15.2814C15.5554 15.2602 15.7355 15.3153 15.8032 15.399C16.1654 15.8417 15.889 16.4707 15.2515 16.6624C14.1119 17.0045 12.9438 17.2025 11.7555 17.1379C10.2707 17.0574 8.78702 16.9314 7.30646 16.7853C6.78435 16.7334 6.22411 16.6804 5.88097 16.152C5.72212 16.2219 5.56114 16.2685 5.42876 16.3564C4.16637 17.1941 3.11684 18.2457 2.42105 19.5981C1.58228 21.2291 1.22749 22.9839 1.30904 24.815C1.36305 26.0308 1.96142 26.9522 2.98976 27.5781C3.70885 28.0155 4.49255 28.3067 5.32603 28.4507C7.26622 28.7865 9.22864 28.7886 11.1868 28.814C13.2859 28.8415 15.368 28.6085 17.4374 28.2591C18.7527 28.0367 20.0733 27.8365 21.3813 27.577C22.3493 27.3853 23.3013 27.1163 24.2587 26.8759C24.3244 26.859 24.3869 26.806 24.4388 26.7573C24.6368 26.5709 24.802 26.3305 25.0297 26.1971C26.2233 25.4981 27.3152 24.671 28.2821 23.6829C29.0022 22.9479 29.5731 22.1081 29.9819 21.1623C30.5177 19.9243 30.2773 18.8081 29.4544 17.7713C28.7947 16.9399 27.9326 16.4729 26.8915 16.2642V16.2663ZM3.48434 29.4187C3.48434 29.4134 3.4748 29.4494 3.47692 29.4854C3.56906 30.9628 3.6612 32.4402 3.75757 33.9176C3.78405 34.3317 3.79146 34.3476 4.2172 34.3391C5.23495 34.32 6.25376 34.2904 7.27151 34.2544C8.11769 34.2236 8.45553 34.4948 8.61333 35.3335C9.25194 38.7342 9.90114 42.1327 10.5334 45.5333C11.1508 48.8566 12.1919 52.0698 13.0825 55.3221C13.1048 55.4015 13.2297 55.5127 13.3018 55.5085C13.9806 55.4757 14.6584 55.4164 15.3373 55.374C16.2766 55.3147 17.216 55.2162 18.1554 55.2204C19.5163 55.2268 20.8475 55.0362 22.1862 54.836C22.7178 54.7566 22.9349 54.5162 22.9985 54.0364C23.0059 53.9792 23.026 53.9242 23.0334 53.867C23.1743 52.7518 23.295 51.6334 23.4602 50.5214C23.6667 49.133 23.941 47.7552 24.1263 46.3646C24.3096 44.9932 24.4271 43.6122 24.5584 42.2343C24.7268 40.4646 24.8836 38.6939 25.0392 36.9232C25.1028 36.1956 25.1303 35.4649 25.2151 34.7405C25.2849 34.1506 25.6524 33.8699 26.2455 33.8784C26.3609 33.8805 26.4753 33.8985 26.5908 33.8996C27.0663 33.9017 27.5418 33.8996 28.03 33.8996C27.9538 31.7793 27.8775 29.6803 27.8023 27.5866C27.3247 27.7433 26.8714 27.9307 26.3991 28.0367C25.7848 28.1754 25.1557 28.2506 24.533 28.3512C24.1634 28.4116 23.779 28.4211 23.4263 28.5334C21.5941 29.1211 19.6995 29.3647 17.8017 29.5924C16.4482 29.7544 15.0958 29.9662 13.736 30.0319C12.0786 30.1124 10.4137 30.0849 8.75313 30.0626C7.71737 30.0478 6.67844 30.0001 5.6501 29.8826C4.92253 29.8 4.2119 29.5776 3.48539 29.4166L3.48434 29.4187Z" fill="black"/>
<path d="M15.9091 41.4993C16.3126 40.9825 16.696 40.4922 17.1249 39.9425C16.4154 39.3495 15.7196 38.7659 15.0206 38.1866C14.8734 38.0648 14.7008 37.9716 14.561 37.8414C14.3057 37.6031 14.2517 37.3012 14.3947 37.0608C14.5377 36.8215 14.83 36.7241 15.1604 36.8416C15.3849 36.9221 15.6137 37.0185 15.8032 37.1593C16.2809 37.5131 16.7426 37.889 17.2001 38.2692C17.4352 38.4651 17.647 38.6897 17.9383 38.965C17.9796 38.8877 18.0061 38.8136 18.0516 38.7543C18.6044 38.0405 19.1604 37.3267 19.7175 36.616C19.8001 36.5112 19.8774 36.3714 19.9897 36.3269C20.1231 36.2729 20.3233 36.2485 20.4324 36.3153C20.5234 36.3703 20.5467 36.5726 20.5563 36.7124C20.5626 36.7961 20.4948 36.8914 20.444 36.9719C19.9251 37.7916 19.4083 38.6124 18.8755 39.4225C18.7601 39.5983 18.7495 39.6894 18.9116 39.8483C19.3648 40.291 19.7906 40.7612 20.2269 41.2229C20.4038 41.4093 20.5753 41.5999 20.7787 41.8202C20.928 41.5766 21.0519 41.3627 21.1864 41.1562C21.6672 40.4149 22.1427 39.6703 22.6415 38.9407C22.7962 38.714 23.0016 38.5107 23.2177 38.3412C23.3119 38.2671 23.5248 38.248 23.6222 38.3063C23.7017 38.3539 23.726 38.5573 23.7112 38.6844C23.6974 38.8104 23.6085 38.9301 23.547 39.0497C22.9709 40.1692 22.398 41.2896 21.8134 42.4048C21.7329 42.5584 21.7636 42.6389 21.8864 42.7416C22.5102 43.2669 23.1287 43.7985 23.7472 44.3302C23.8192 44.3916 23.9219 44.4636 23.9336 44.542C23.9579 44.7083 23.9887 44.9232 23.9071 45.0397C23.8404 45.134 23.5947 45.1711 23.457 45.1319C22.8841 44.9688 22.4011 44.6373 21.9521 44.2508C21.6979 44.0315 21.4363 43.8229 21.1663 43.5984C21.1101 43.6704 21.0657 43.718 21.0318 43.7731C20.5171 44.6182 20.0077 45.4676 19.4856 46.3096C19.385 46.4716 19.3955 46.5733 19.5279 46.7046C19.9928 47.1642 20.4609 47.6217 20.9015 48.1036C21.1716 48.3991 21.4247 48.7221 21.6217 49.0684C21.7233 49.2474 21.7339 49.5132 21.7 49.7261C21.6619 49.9643 21.4067 50.0004 21.2341 49.8362C20.9418 49.5598 20.6505 49.2813 20.3423 49.0239C19.7969 48.5685 19.2399 48.129 18.6786 47.6757C18.6659 47.6831 18.6341 47.6906 18.6203 47.7107C17.9584 48.6787 17.3018 49.6498 16.6335 50.6125C16.4768 50.8391 16.2989 51.0605 16.0934 51.2426C15.8255 51.4799 15.5194 51.4862 15.3012 51.3168C15.0915 51.1547 15.0354 50.8444 15.207 50.5256C15.5618 49.8669 15.9197 49.2082 16.3158 48.5749C16.7034 47.9564 17.144 47.3707 17.5496 46.7639C17.6004 46.6876 17.629 46.532 17.5867 46.4695C17.0233 45.6328 16.444 44.8057 15.87 43.9754C15.8488 43.9447 15.8382 43.9055 15.8085 43.8356C15.5734 44.1703 15.4019 44.4626 15.1837 44.7146C14.7632 45.1997 14.3269 45.6709 13.8758 46.1274C13.7476 46.2566 13.5538 46.3604 13.3759 46.39C13.2297 46.4144 13.0063 46.3604 12.9184 46.2555C12.8315 46.1528 12.8379 45.9357 12.8665 45.7811C12.8908 45.6487 12.9967 45.5269 13.0793 45.4094C13.6629 44.5854 14.2443 43.7604 14.8395 42.9449C14.9655 42.7723 14.9518 42.6611 14.8331 42.4938C14.1892 41.5851 13.4331 40.7866 12.5689 40.0844C11.7227 39.3971 10.9337 38.6526 10.3766 37.6973C10.294 37.5565 10.2136 37.4124 10.1532 37.2621C10.0325 36.9613 10.0992 36.6785 10.3078 36.5313C10.5048 36.3926 10.7971 36.4127 11.028 36.6086C11.1879 36.7442 11.3213 36.9126 11.4717 37.0608C12.0669 37.6454 12.6324 38.265 13.2689 38.8009C14.1914 39.5782 15.0746 40.3852 15.7863 41.3669C15.8138 41.4051 15.8498 41.4368 15.9081 41.5004L15.9091 41.4993ZM17.9944 40.6997C17.5549 41.3278 17.1493 41.8986 16.7585 42.479C16.7161 42.5414 16.7278 42.6844 16.7712 42.7554C17.2721 43.5634 17.7837 44.3651 18.2941 45.1668C18.3375 45.2346 18.3937 45.2929 18.4625 45.3808C19.0016 44.5558 19.5237 43.7636 20.0331 42.9619C20.067 42.9089 20.0299 42.766 19.977 42.7098C19.6317 42.337 19.2748 41.9738 18.9168 41.6116C18.6214 41.3129 18.3185 41.0206 17.9934 40.6997H17.9944Z" fill="black"/>
</svg>
